<svg xmlns="http://www.w3.org/2000/svg" width="16" height="16" fill="currentColor" class="bi bi-terminal-split-rows" viewBox="0 0 16 16">
  <path d="M2.146 3.146a.5.5 0 0 1 .708 0l.823.824a.75.75 0 0 1 0 1.06l-.823.824a.5.5 0 1 1-.708-.708l.647-.646-.647-.646a.5.5 0 0 1 0-.708M4 6a.5.5 0 0 1 .5-.5h1a.5.5 0 0 1 0 1h-1A.5.5 0 0 1 4 6m-1.854 3.5a.5.5 0 0 1 .708 0l.823.824a.75.75 0 0 1 0 1.06l-.823.824a.5.5 0 1 1-.708-.708l.647-.646-.647-.646a.5.5 0 0 1 0-.708M4 12.5a.5.5 0 0 1 .5-.5h1a.5.5 0 0 1 0 1h-1a.5.5 0 0 1-.5-.5"/>
  <path d="M0 3a2 2 0 0 1 2-2h12a2 2 0 0 1 2 2v10a2 2 0 0 1-2 2H2a2 2 0 0 1-2-2zm2-1a1 1 0 0 0-1 1v4.5h14V3a1 1 0 0 0-1-1zM1 8.5V13a1 1 0 0 0 1 1h12a1 1 0 0 0 1-1V8.5z"/>
</svg>
