<svg xmlns="http://www.w3.org/2000/svg" width="16" height="16" viewBox="0 0 24 24" fill="none" stroke="currentColor" stroke-width="2" stroke-linecap="round" stroke-linejoin="round">
  <!-- Outline (Tabler "brand-docker") tagged with GTK symbolic recolor classes:
       transparent-fill keeps GTK from filling the paths (its default), and
       foreground-stroke recolors the strokes to the theme foreground, so the
       icon follows light/dark automatically. -->
  <path class="transparent-fill" stroke="none" d="M0 0h24v24H0z"/>
  <path class="transparent-fill foreground-stroke" d="M22 12.54c-1.804 -.345 -2.701 -1.08 -3.523 -2.94c-.487 .696 -1.102 1.568 -.92 2.4c.028 .238 -.32 1 -.557 1h-14c0 5.208 3.164 7 6.196 7c4.124 .022 7.828 -1.376 9.854 -5c1.146 -.101 2.296 -1.505 2.95 -2.46"/>
  <path class="transparent-fill foreground-stroke" d="M5 10h3v3h-3l0 -3"/>
  <path class="transparent-fill foreground-stroke" d="M8 10h3v3h-3l0 -3"/>
  <path class="transparent-fill foreground-stroke" d="M11 10h3v3h-3l0 -3"/>
  <path class="transparent-fill foreground-stroke" d="M8 7h3v3h-3l0 -3"/>
  <path class="transparent-fill foreground-stroke" d="M11 7h3v3h-3l0 -3"/>
  <path class="transparent-fill foreground-stroke" d="M11 4h3v3h-3l0 -3"/>
  <path class="transparent-fill foreground-stroke" d="M4.571 18c1.5 0 2.047 -.074 2.958 -.78"/>
  <path class="transparent-fill foreground-stroke" d="M10 16l0 .01"/>
</svg>
