<svg xmlns="http://www.w3.org/2000/svg" width="128" height="128" viewBox="0 0 128 128">
  <defs>
    <linearGradient id="face" x1="0" y1="16" x2="0" y2="108" gradientUnits="userSpaceOnUse">
      <stop offset="0" stop-color="#9a9996"></stop>
      <stop offset="1" stop-color="#5e5c64"></stop>
    </linearGradient>
    <clipPath id="w"><rect x="22" y="26" width="84" height="72" rx="6"></rect></clipPath>
  </defs>
  <rect x="12" y="16" width="104" height="92" rx="14" fill="url(#face)"></rect>
  <g clip-path="url(#w)">
    <rect x="22" y="26" width="84" height="72" fill="#241f31"></rect>
    <rect x="22" y="26" width="25" height="72" fill="#f6f5f4"></rect>
  </g>
  <rect x="24.5" y="30" width="20" height="11" rx="2.5" fill="#ffffff" stroke="#deddda" stroke-width="1"></rect><circle cx="29" cy="35.5" r="2" fill="#e01b24"></circle><rect x="33" y="33.5" width="9" height="1.5" rx=".75" fill="#c0bfbc"></rect><rect x="33" y="36" width="6" height="1.5" rx=".75" fill="#c0bfbc"></rect>
  <rect x="24.5" y="44" width="20" height="11" rx="2.5" fill="#5e5c64" stroke="#5e5c64" stroke-width="1"></rect><circle cx="29" cy="49.5" r="2" fill="#ffa348"></circle><rect x="33" y="47.5" width="7" height="1.5" rx=".75" fill="#c0bfbc"></rect><rect x="33" y="50" width="9" height="1.5" rx=".75" fill="#c0bfbc"></rect>
  <rect x="24.5" y="58" width="20" height="11" rx="2.5" fill="#ffffff" stroke="#deddda" stroke-width="1"></rect><circle cx="29" cy="63.5" r="2" fill="#2ec27e"></circle><rect x="33" y="61.5" width="5" height="1.5" rx=".75" fill="#c0bfbc"></rect><rect x="33" y="64" width="8" height="1.5" rx=".75" fill="#c0bfbc"></rect>
  <path d="M56 40 l9 7 l-9 7" fill="none" stroke="#ffffff" stroke-width="5" stroke-linecap="round" stroke-linejoin="round"></path>
  <rect x="69" y="51" width="13" height="5" rx="1.25" fill="#ffa348"></rect>
</svg>